<svg width="22" height="22" viewBox="0 0 22 22" fill="none" xmlns="http://www.w3.org/2000/svg">
  <mask id="path-1-inside-1" fill="white">
    <rect width="22" height="22" rx="1"/>
  </mask>
  <rect width="22" height="22" rx="1" fill="#F2F2F2" stroke="#151515" stroke-width="4" stroke-linecap="round" stroke-linejoin="round" mask="url(#path-1-inside-1)"/>
  <path d="M5.75929 10C5.75602 10 5.75274 10 5.74881 10C5.33543 10 5 10.4471 5 11C5 11.5529 5.33477 12 5.74881 12C5.75274 12 5.75602 12 5.75995 12H16.2407C16.244 12 16.2473 12 16.2512 12C16.6646 12 17 11.5529 17 11C17 10.4471 16.6652 10 16.2512 10C16.2473 10 16.244 10 16.24 10H5.75929Z" fill="#151515"/>
  <path d="M12 5.75929C12 5.75602 12 5.75274 12 5.74881C12 5.33543 11.5529 5 11 5C10.4471 5 10 5.33477 10 5.74881C10 5.75274 10 5.75602 10 5.75995V5.75929V16.2407C10 16.244 10 16.2473 10 16.2512C10 16.6646 10.4471 17 11 17C11.5529 17 12 16.6652 12 16.2512C12 16.2473 12 16.244 12 16.24V16.2407V5.75929Z" fill="#151515"/>
</svg>

