<svg width="41" height="38" viewBox="0 0 41 38" fill="none" xmlns="http://www.w3.org/2000/svg">
  <path d="M35.1027 0H5.89726C2.63973 0 0 2.62647 0 5.86765V32.1324C0 35.3735 2.63973 38 5.89726 38H35.1027C38.3603 38 41 35.3735 41 32.1324V5.86765C41 2.62647 38.3603 0 35.1027 0ZM16.737 24.0294L10.5589 29.6176C9.99726 30.1206 9.09863 30.0647 8.59315 29.45C8.08767 28.8912 8.14384 28.0529 8.70548 27.55L13.7603 22.9676L8.70548 18.3853C8.14384 17.8265 8.14384 16.9882 8.64931 16.4294C9.15479 15.8706 9.99726 15.8706 10.5589 16.3176L16.737 21.9059C17.2986 22.4088 17.3548 23.3029 16.8493 23.8618C16.7932 23.9176 16.7932 23.9735 16.737 24.0294ZM31.1712 31.0147H19.2082C18.4219 31.0147 17.8041 30.4 17.8041 29.6176C17.8041 28.8353 18.4219 28.2206 19.2082 28.2206H31.1712C31.9575 28.2206 32.5753 28.8353 32.5753 29.6176C32.5753 30.4 31.9575 31.0147 31.1712 31.0147ZM38.1918 9.10882H2.80822V5.86765C2.80822 4.19118 4.21233 2.79412 5.89726 2.79412H35.1027C36.7877 2.79412 38.1918 4.19118 38.1918 5.86765V9.10882Z" fill="#F2F2F2"/>
</svg>
