<svg width="22" height="24" viewBox="0 0 22 24" fill="none" xmlns="http://www.w3.org/2000/svg">
  <path d="M21 23L0.999997 23L0.999997 6.50572L11 1.13509L21 6.50572L21 23V23Z" fill="#F2F2F2" stroke="#151515" stroke-width="2" stroke-linecap="round" stroke-linejoin="round"/>
  <path d="M5.72916 12C5.72602 12 5.72287 12 5.7191 12C5.32212 12 5 12.4877 5 13.0909C5 13.6941 5.32149 14.1818 5.7191 14.1818C5.72287 14.1818 5.72602 14.1818 5.72979 14.1818L15.7946 14.1818C15.7978 14.1818 15.8009 14.1818 15.8047 14.1818C16.2017 14.1818 16.5238 13.6941 16.5238 13.0909C16.5238 12.4877 16.2023 12 15.8047 12C15.8009 12 15.7978 12 15.794 12L5.72916 12Z" fill="#151515"/>
</svg>

