<svg width="22" height="24" viewBox="0 0 22 24" fill="none" xmlns="http://www.w3.org/2000/svg">
  <path d="M1 1H21V17.4943L11 22.8649L1 17.4943V1V1Z" fill="#F2F2F2" stroke="#151515" stroke-width="2" stroke-linecap="round" stroke-linejoin="round"/>
  <path d="M5.96726 9.81818C5.96412 9.81818 5.96097 9.81818 5.9572 9.81818C5.56021 9.81818 5.2381 10.3059 5.2381 10.9091C5.2381 11.5123 5.55958 12 5.9572 12C5.96097 12 5.96412 12 5.96789 12H16.0327C16.0359 12 16.039 12 16.0428 12C16.4398 12 16.7619 11.5123 16.7619 10.9091C16.7619 10.3059 16.4404 9.81818 16.0428 9.81818C16.039 9.81818 16.0359 9.81818 16.0321 9.81818H5.96726Z" fill="#151515"/>
</svg>
